<?xml version="1.0" encoding="UTF-8" standalone="no"?>
<!-- Created with Inkscape (http://www.inkscape.org/) -->

<svg
   width="261mm"
   height="136.804mm"
   viewBox="0 0 261 136.804"
   version="1.1"
   id="svg1"
   xml:space="preserve"
   inkscape:version="1.3.1 (9b9bdc1480, 2023-11-25, custom)"
   sodipodi:docname="parakit.logo.svg"
   xmlns:inkscape="http://www.inkscape.org/namespaces/inkscape"
   xmlns:sodipodi="http://sodipodi.sourceforge.net/DTD/sodipodi-0.dtd"
   xmlns="http://www.w3.org/2000/svg"
   xmlns:svg="http://www.w3.org/2000/svg"><sodipodi:namedview
     id="namedview1"
     pagecolor="#ffffff"
     bordercolor="#000000"
     borderopacity="0.25"
     inkscape:showpageshadow="2"
     inkscape:pageopacity="0.0"
     inkscape:pagecheckerboard="0"
     inkscape:deskcolor="#d1d1d1"
     inkscape:document-units="mm"
     showgrid="false"
     inkscape:zoom="0.72693604"
     inkscape:cx="646.54932"
     inkscape:cy="214.59935"
     inkscape:window-width="1920"
     inkscape:window-height="1016"
     inkscape:window-x="0"
     inkscape:window-y="27"
     inkscape:window-maximized="1"
     inkscape:current-layer="svg1" /><defs
     id="defs1" /><g
     id="g35"
     transform="matrix(0.65037787,0,0,0.65037787,203.20358,-103.27377)"><path
       style="display:inline;fill:#bfeaad;fill-opacity:1;stroke:#2d2d2d;stroke-width:4.394;stroke-linecap:round;stroke-linejoin:round;stroke-dasharray:none;stroke-dashoffset:0;stroke-opacity:1"
       d="m -204.72438,286.90359 c 3.08972,8.78386 23.92406,31.92391 20.84147,34.35461 6.70375,5.66615 24.46158,23.5179 28.1788,28.58622 -1.83146,4.2122 7.95121,9.90699 6.18662,11.51678 -3.80021,3.46682 -63.02973,-45.65712 -69.98403,-55.55629"
       id="path2"
       sodipodi:nodetypes="cccsc" /><path
       style="fill:#bfeaad;fill-opacity:1;stroke:#2d2d2d;stroke-width:4.394;stroke-linecap:round;stroke-linejoin:round;stroke-dasharray:none;stroke-dashoffset:0;stroke-opacity:1"
       d="m -186.51076,314.83089 c 8.14329,18.34405 -28.72645,-6.03866 -47.09653,-17.98158 -52.13497,-10.09502 -57.87116,-36.54978 -56.29553,-69.7226 15.71642,-18.83265 33.13521,-13.86088 49.82485,-19.08505 l 38.04472,72.63739 -3.17459,6.82153 z"
       id="path3"
       sodipodi:nodetypes="ccccccc" /><path
       style="fill:#bfeaad;fill-opacity:1;stroke:#2d2d2d;stroke-width:4.394;stroke-linecap:round;stroke-linejoin:round;stroke-dasharray:none;stroke-opacity:1"
       d="m -238.23129,210.57326 c 16.54614,30.37641 25.21877,45.35824 36.39135,68.92386 1.63114,3.44048 -1.76802,10.53816 -8.70647,6.37749 2.06209,2.53884 -1.41373,7.71704 -10.09157,4.07642 -0.82264,0.65372 0.47489,6.47119 -9.3371,1.16779 -3.29541,1.07381 -9.57177,1.64388 -18.04138,-3.28249 -22.60243,-13.14673 -37.21268,-52.87267 -9.88797,-63.91147 16.1126,-6.50928 19.67314,-13.3516 19.67314,-13.3516 z"
       id="path6"
       sodipodi:nodetypes="ccccsssc" /><path
       d="m -238.69447,209.81032 c -6.1889,-13.39249 -16.13203,-38.25667 -33.88052,-39.10337 -17.49928,2.71197 -30.25459,6.65706 -32.1365,19.91962 3.86516,1.48161 11.29033,4.67401 9.44787,7.90956 -2.18034,3.82893 -0.5237,13.6243 4.8266,27.53951 1.87825,4.885 10.70405,-4.77155 14.96947,-6.42442 5.18466,-2.00907 11.52062,-3.14626 18.1791,3.73607 6.57576,-3.97453 13.20105,-6.36215 18.59398,-13.57697 z"
       style="fill:#f2f8a1;fill-opacity:1;stroke:#2d2d2d;stroke-width:4.394;stroke-linecap:round;stroke-linejoin:round;stroke-dasharray:none;stroke-dashoffset:0;stroke-opacity:1"
       id="path1-5" /><g
       id="g9"
       transform="rotate(7.921992,-992.95476,-2216.8523)"
       style="stroke-width:1.9;stroke-dasharray:none"><g
         id="g4"
         transform="matrix(0.70241484,0,0,0.70241484,11.971901,11.313813)"
         style="stroke-width:2.70495;stroke-dasharray:none"><path
           style="fill:#2a2a2a;stroke-width:2.70495;stroke-linecap:round;stroke-linejoin:round;stroke-dasharray:none"
           d="m 41.824067,72.532273 c -3.347421,2.258696 -3.205064,8.434971 0.436026,11.020129 2.204625,1.565274 8.26511,0.476404 9.260596,-2.683788 2.513204,-7.97822 -5.363792,-11.259949 -9.696622,-8.336341 z"
           id="path1"
           sodipodi:nodetypes="ssss" /><path
           style="fill:#efefef;fill-opacity:1;stroke-width:2.70495;stroke-linecap:round;stroke-linejoin:round;stroke-dasharray:none"
           d="m 45.934446,73.78828 c -1.226295,0.439246 -1.03385,2.72085 0.140648,3.554738 0.711141,0.504907 2.729005,0.171404 2.98717,-0.865703 0.551663,-2.216156 -2.163319,-3.034508 -3.127818,-2.689035 z"
           id="path4"
           sodipodi:nodetypes="ssss" /></g><path
         style="fill:none;stroke:#000000;stroke-width:1.9;stroke-linecap:round;stroke-linejoin:round;stroke-dasharray:none;stroke-opacity:1"
         d="m 39.414842,60.911213 c -2.796095,1.98316 -3.560905,7.888503 0.755945,11.38895 2.454979,1.990692 9.085062,0.93149 10.248762,-2.762699 2.937875,-9.326349 -6.020842,-12.161111 -11.004707,-8.626251 z"
         id="path5"
         sodipodi:nodetypes="ssss" /></g><path
       style="fill:#2d2d2d;fill-opacity:1;stroke:#2d2d2d;stroke-width:2.894;stroke-linecap:round;stroke-linejoin:round;stroke-dasharray:none;stroke-opacity:1"
       d="m -268.329,288.31651 c -7.73378,0.859 -12.77706,-1.36818 -23.01393,2.76029 -0.90382,0.67832 0.15032,6.36434 0.72953,7.31982 0.17939,-4.40487 2.34792,-2.50029 3.41075,-5.98404 2.69755,0.61159 5.39882,1.40031 8.01556,-1.82895 2.03424,1.95391 4.60314,1.42612 7.00441,1.67636 4.35213,2.50558 9.17097,8.67105 10.6755,9.54933 2.39858,1.40017 3.85904,-1.57652 2.89249,-2.92543 -1.33813,-1.8675 -5.26249,-4.45078 -5.26249,-4.45078 4.01695,-2.20214 3.60435,-3.40115 5.34229,-5.08717 -2.41835,-0.59631 -3.38511,-1.62683 -9.79411,-1.02943 z"
       id="path7"
       sodipodi:nodetypes="ccccccssccc" /><path
       style="fill:#e01a2b;fill-opacity:1;stroke:#2d2d2d;stroke-width:2.194;stroke-linecap:round;stroke-linejoin:round;stroke-dasharray:none;stroke-opacity:1"
       d="m -306.59863,195.26767 c 1.82303,2.9199 4.33891,3.18099 6.83764,3.50795 -2.20741,4.56241 -5.22213,6.65611 -6.00375,15.57859 -4.16758,-7.9008 -2.15535,-13.35704 -0.83389,-19.08654 z"
       id="path8"
       sodipodi:nodetypes="cccc" /></g><g
     id="g34"
     transform="matrix(0.49815949,0,0,0.49815949,168.10465,23.662349)"><path
       style="display:inline;opacity:0.776147;fill:none;fill-opacity:1;stroke:#449b42;stroke-width:6.8;stroke-linecap:round;stroke-linejoin:round;stroke-dasharray:none;stroke-opacity:1"
       d="m -146.02365,76.769826 c 1.85881,-1.12947 5.3956,-3.21666 8.68109,-5.65965"
       id="path12"
       sodipodi:nodetypes="cc"
       transform="translate(-8.116783,-59.363893)" /><path
       d="m -112.75169,71.458146 c -2.51178,-14.53796 -5.68079,-41.12838 -22.60536,-46.53988 -17.60492,-1.90958 -30.94668,-1.40024 -36.19706,10.92334 3.34999,2.43149 9.6959,7.43689 7.0788,10.08533 -3.09705,3.13414 -4.03209,13.02452 -2.46561,27.85034 0.54992,5.20468 11.57428,-1.83856 16.12215,-2.33113 5.52798,-0.59873 11.94239,-0.0573 16.5927,8.31386 7.38038,-2.13717 14.39789,-2.72868 21.47438,-8.30186 z"
       style="fill:#bfeaad;fill-opacity:1;stroke:#2d2d2d;stroke-width:4.394;stroke-linecap:round;stroke-linejoin:round;stroke-dasharray:none;stroke-dashoffset:0;stroke-opacity:1"
       id="path17"
       transform="translate(-8.116783,-59.363893)" /><g
       id="g20"
       transform="rotate(22.921992,157.96253,-469.09503)"
       style="stroke-width:1.9;stroke-dasharray:none"><g
         id="g19"
         transform="matrix(0.70241484,0,0,0.70241484,11.971901,11.313813)"
         style="stroke-width:2.70495;stroke-dasharray:none"><path
           style="fill:#2a2a2a;stroke-width:2.70495;stroke-linecap:round;stroke-linejoin:round;stroke-dasharray:none"
           d="m 41.824067,72.532273 c -3.347421,2.258696 -3.205064,8.434971 0.436026,11.020129 2.204625,1.565274 8.26511,0.476404 9.260596,-2.683788 2.513204,-7.97822 -5.363792,-11.259949 -9.696622,-8.336341 z"
           id="path18"
           sodipodi:nodetypes="ssss" /><path
           style="fill:#efefef;fill-opacity:1;stroke-width:2.70495;stroke-linecap:round;stroke-linejoin:round;stroke-dasharray:none"
           d="m 45.934446,73.78828 c -1.226295,0.439246 -1.03385,2.72085 0.140648,3.554738 0.711141,0.504907 2.729005,0.171404 2.98717,-0.865703 0.551663,-2.216156 -2.163319,-3.034508 -3.127818,-2.689035 z"
           id="path19"
           sodipodi:nodetypes="ssss" /></g><path
         style="fill:none;stroke:#000000;stroke-width:1.9;stroke-linecap:round;stroke-linejoin:round;stroke-dasharray:none;stroke-opacity:1"
         d="m 39.414842,60.911213 c -2.796095,1.98316 -3.560905,7.888503 0.755945,11.38895 2.454979,1.990692 9.085062,0.93149 10.248762,-2.762699 2.937875,-9.326349 -6.020842,-12.161111 -11.004707,-8.626251 z"
         id="path20"
         sodipodi:nodetypes="ssss" /></g><path
       style="opacity:1;fill:#2d2d2d;fill-opacity:1;stroke:#2d2d2d;stroke-width:2.894;stroke-linecap:round;stroke-linejoin:round;stroke-dasharray:none;stroke-opacity:1"
       d="m -161.69534,139.61933 c -7.69258,-1.17192 -11.98758,-4.62851 -22.94417,-3.29021 -1.04859,0.42128 -1.50202,6.18638 -1.18983,7.25922 1.31334,-4.20835 2.91504,-1.80741 4.84332,-4.89737 2.44734,1.28892 4.85243,2.74991 8.21579,0.30794 1.45922,2.41384 4.07718,2.56891 6.33187,3.43212 3.55534,3.54662 6.61424,10.74921 7.84019,11.98696 1.95446,1.97326 4.13558,-0.524 3.55109,-2.07711 -0.80919,-2.1502 -3.93123,-5.66116 -3.93123,-5.66116 4.45003,-1.08744 4.36181,-2.35238 6.47691,-3.53114 -2.18161,-1.20191 -2.84871,-2.44753 -9.19394,-3.52925 z"
       id="path21"
       sodipodi:nodetypes="ccccccssccc"
       transform="translate(-8.116783,-59.363893)" /><path
       style="opacity:1;fill:#e01a2b;fill-opacity:1;stroke:#2d2d2d;stroke-width:2.194;stroke-linecap:round;stroke-linejoin:round;stroke-dasharray:none;stroke-opacity:1"
       d="m -174.57816,39.836126 c 1.00519,3.29225 3.36778,4.19559 5.69673,5.15813 -3.31303,3.83563 -6.76692,5.07772 -9.83121,13.49389 -1.9807,-8.71024 1.37516,-13.45976 4.13448,-18.65202 z"
       id="path22"
       sodipodi:nodetypes="cccc"
       transform="translate(-8.116783,-59.363893)" /><path
       style="display:inline;opacity:1;fill:#bfeaad;fill-opacity:1;stroke:#2d2d2d;stroke-width:4.394;stroke-linecap:round;stroke-linejoin:round;stroke-dasharray:none;stroke-dashoffset:0;stroke-opacity:1"
       d="m -108.00909,95.352736 c 0.71101,9.284234 14.846348,37.028134 11.239688,38.578174 5.00881,7.20814 17.54119,29.04767 19.819967,34.90538 -2.859247,3.59466 5.116157,11.62734 2.99505,12.72557 -4.567987,2.36512 -49.065105,-60.41469 -53.220345,-71.77646"
       id="path9"
       sodipodi:nodetypes="cccsc" /><path
       style="opacity:1;fill:#bfeaad;fill-opacity:1;stroke:#2d2d2d;stroke-width:4.394;stroke-linecap:round;stroke-linejoin:round;stroke-dasharray:none;stroke-dashoffset:0;stroke-opacity:1"
       d="m -97.644202,127.04247 c 3.11802,19.82663 -26.184698,-13.26785 -40.837778,-29.558354 -47.74573,-23.24457 -46.43947,-50.28254 -36.33177,-81.91722 20.05514,-14.1232308 35.59362,-4.81256 53.06668,-5.53912 l 17.94844,80.00903 -4.83196,5.76744 z"
       id="path13"
       sodipodi:nodetypes="ccccccc" /><path
       style="opacity:1;fill:#bfeaad;fill-opacity:1;stroke:#2d2d2d;stroke-width:4.394;stroke-linecap:round;stroke-linejoin:round;stroke-dasharray:none;stroke-opacity:1"
       d="m -120.61854,12.951066 c 8.12035,33.62382 12.61989,50.3398 17.31254,75.99411 0.6851,3.74542 -4.43525,9.72149 -10.06042,3.90678 1.33473,2.98605 -3.36287,7.08819 -10.80276,1.32563 -0.96381,0.41853 -1.21616,6.373604 -9.32119,-1.28862 -3.46105,0.18431 -9.67109,-0.88949 -16.57707,-7.84009 -18.42964,-18.54871 -22.26023,-60.70243 6.99046,-64.29294 17.2483,-2.11723 22.45844,-7.80487 22.45844,-7.80487 z"
       id="path14"
       sodipodi:nodetypes="ccccsssc" /></g><g
     id="g33"
     transform="matrix(0.40190229,-0.10768939,0.10768939,0.40190229,129.85333,-28.985051)"><path
       style="display:inline;opacity:0.776147;fill:none;fill-opacity:1;stroke:#449b42;stroke-width:6.8;stroke-linecap:round;stroke-linejoin:round;stroke-dasharray:none;stroke-opacity:1"
       d="m -12.737344,187.37779 c 2.087801,-0.60989 6.0442805,-1.71057 9.8501125,-3.21997"
       id="path16"
       sodipodi:nodetypes="cc"
       transform="translate(-8.116783,-59.363893)" /><path
       d="m 19.75337,190.58459 c 1.336511,-14.69268 5.157589,-41.19726 -9.7896815,-50.80476 -16.510799,-6.401 -29.5297715,-9.36212 -37.7908235,1.18265 2.606526,3.21568 7.440706,9.69297 4.227317,11.57381 -3.802695,2.22577 -7.26569,11.53714 -9.589794,26.26321 -0.815889,5.16967 11.655744,1.21973 16.176133,1.92102 5.494578,0.85242 11.5502875,3.03557 13.8755235,12.32508 7.682037,-0.15417 14.6135195,1.09074 22.8913255,-2.46101 z"
       style="fill:#f2f8a1;fill-opacity:1;stroke:#2d2d2d;stroke-width:4.394;stroke-linecap:round;stroke-linejoin:round;stroke-dasharray:none;stroke-dashoffset:0;stroke-opacity:1"
       id="path24"
       transform="translate(-8.116783,-59.363893)" /><g
       id="g27"
       transform="rotate(37.921992,-20.52007,-4.992389)"
       style="stroke-width:1.9;stroke-dasharray:none"><g
         id="g26"
         transform="matrix(0.70241484,0,0,0.70241484,11.971901,11.313813)"
         style="stroke-width:2.70495;stroke-dasharray:none"><path
           style="fill:#2a2a2a;stroke-width:2.70495;stroke-linecap:round;stroke-linejoin:round;stroke-dasharray:none"
           d="m 41.824067,72.532273 c -3.347421,2.258696 -3.205064,8.434971 0.436026,11.020129 2.204625,1.565274 8.26511,0.476404 9.260596,-2.683788 2.513204,-7.97822 -5.363792,-11.259949 -9.696622,-8.336341 z"
           id="path25"
           sodipodi:nodetypes="ssss" /><path
           style="fill:#efefef;fill-opacity:1;stroke-width:2.70495;stroke-linecap:round;stroke-linejoin:round;stroke-dasharray:none"
           d="m 45.934446,73.78828 c -1.226295,0.439246 -1.03385,2.72085 0.140648,3.554738 0.711141,0.504907 2.729005,0.171404 2.98717,-0.865703 0.551663,-2.216156 -2.163319,-3.034508 -3.127818,-2.689035 z"
           id="path26"
           sodipodi:nodetypes="ssss" /></g><path
         style="fill:none;stroke:#000000;stroke-width:1.9;stroke-linecap:round;stroke-linejoin:round;stroke-dasharray:none;stroke-opacity:1"
         d="m 39.414842,60.911213 c -2.796095,1.98316 -3.560905,7.888503 0.755945,11.38895 2.454979,1.990692 9.085062,0.93149 10.248762,-2.762699 2.937875,-9.326349 -6.020842,-12.161111 -11.004707,-8.626251 z"
         id="path27"
         sodipodi:nodetypes="ssss" /></g><path
       style="opacity:1;fill:#2d2d2d;fill-opacity:1;stroke:#2d2d2d;stroke-width:2.894;stroke-linecap:round;stroke-linejoin:round;stroke-dasharray:none;stroke-opacity:1"
       d="m -45.163951,243.75569 c -7.12714,-3.12297 -10.381158,-7.5734 -21.310788,-9.11648 -1.12189,0.13553 -3.05199,5.58683 -3.02811,6.70392 2.35779,-3.72504 3.2835,-0.99136 5.945821,-3.47695 2.030352,1.87841 3.975356,3.91211 7.856137,2.42384 0.784751,2.70927 3.273371,3.53663 5.227816,4.95399 2.516262,4.34596 3.606762,12.09483 4.470586,13.6077 1.377143,2.41187 4.130282,0.56422 3.967682,-1.08725 -0.225105,-2.28636 -2.332058,-6.48573 -2.332058,-6.48573 4.579847,0.10136 4.822023,-1.14331 7.170138,-1.73448 -1.796196,-1.72559 -2.118175,-3.10143 -7.967224,-5.78856 z"
       id="path28"
       sodipodi:nodetypes="ccccccssccc"
       transform="translate(-8.116783,-59.363893)" /><path
       style="opacity:1;fill:#e01a2b;fill-opacity:1;stroke:#2d2d2d;stroke-width:2.194;stroke-linecap:round;stroke-linejoin:round;stroke-dasharray:none;stroke-opacity:1"
       d="m -31.781998,144.03821 c 0.118842,3.44023 2.167124,4.92427 4.167593,6.45679 -4.192875,2.84746 -7.85055,3.15329 -12.988689,10.48959 0.341167,-8.92608 4.811942,-12.64521 8.821096,-16.94638 z"
       id="path29"
       sodipodi:nodetypes="cccc"
       transform="translate(-8.116783,-59.363893)" /><path
       style="display:inline;opacity:1;fill:#f2f8a1;fill-opacity:1;stroke:#2d2d2d;stroke-width:4.394;stroke-linecap:round;stroke-linejoin:round;stroke-dasharray:none;stroke-dashoffset:0;stroke-opacity:1"
       d="m 2.5089145,214.97047 c -1.71615305,9.1519 4.756878,39.60894 0.871935,40.1727 2.972532,8.2589 9.4253875,32.59788 10.1104305,38.84579 -3.6921865,2.73214 1.932451,12.5553 -0.400624,13.06713 -5.0244735,1.10225 -31.756757,-71.05509 -32.829765,-83.10517"
       id="path30"
       sodipodi:nodetypes="cccsc" /><path
       style="opacity:1;fill:#f2f8a1;fill-opacity:1;stroke:#2d2d2d;stroke-width:4.394;stroke-linecap:round;stroke-linejoin:round;stroke-dasharray:none;stroke-dashoffset:0;stroke-opacity:1"
       d="M 4.3187165,248.26303 C 2.1989835,268.22109 -17.539774,228.67017 -27.477262,209.14227 -67.579929,174.33224 -59.320241,148.55365 -41.3693,120.61296 c 23.027127,-8.45134 35.6263585,4.56372 52.692077,8.38428 l -3.3710105,81.92818 -6.160035,4.32032 z"
       id="path31"
       sodipodi:nodetypes="ccccccc" /><path
       style="opacity:1;fill:#f2f8a1;fill-opacity:1;stroke:#2d2d2d;stroke-width:4.394;stroke-linecap:round;stroke-linejoin:round;stroke-dasharray:none;stroke-opacity:1"
       d="m 11.65625,132.11301 c -0.858835,34.57981 -0.83903,51.89077 -2.9461045,77.88548 -0.30763,3.79512 -6.800226,8.24231 -10.728762,1.16983 0.516403,3.22976 -5.082839,5.9763 -10.7777585,-1.51549 -1.039292,0.15481 -2.824329,5.84166 -8.670053,-3.65721 -3.390817,-0.71776 -9.111333,-3.36225 -13.983047,-11.86341 -13.000894,-22.68662 -5.790774,-64.39541 23.392501,-60.29295 17.2085495,2.4191 23.713224,-1.72625 23.713224,-1.72625 z"
       id="path32"
       sodipodi:nodetypes="ccccsssc" /></g><path
     style="fill:none;fill-opacity:1;stroke:#b2e39d;stroke-width:8;stroke-linecap:round;stroke-linejoin:round;stroke-dasharray:none;stroke-opacity:1"
     d="m 178.22304,102.2452 h 31.80891"
     id="path35" /><path
     style="fill:none;fill-opacity:1;stroke:#e7ed97;stroke-width:8;stroke-linecap:round;stroke-linejoin:round;stroke-dasharray:none;stroke-opacity:1"
     d="m 217.91845,102.2452 h 31.80891"
     id="path36" /><path
     style="fill:none;fill-opacity:1;stroke:#b2e39d;stroke-width:8;stroke-linecap:round;stroke-linejoin:round;stroke-dasharray:none;stroke-opacity:1"
     d="m 178.22304,114.33207 h 31.80891"
     id="path37" /><path
     style="fill:none;fill-opacity:1;stroke:#e7ed97;stroke-width:8;stroke-linecap:round;stroke-linejoin:round;stroke-dasharray:none;stroke-opacity:1"
     d="m 217.91845,114.33207 h 31.80891"
     id="path38" /><path
     style="fill:none;fill-opacity:1;stroke:#b2e39d;stroke-width:8;stroke-linecap:round;stroke-linejoin:round;stroke-dasharray:none;stroke-opacity:1"
     d="m 177.70174,126.41894 h 31.80891"
     id="path39" /><path
     style="fill:none;fill-opacity:1;stroke:#e7ed97;stroke-width:8;stroke-linecap:round;stroke-linejoin:round;stroke-dasharray:none;stroke-opacity:1"
     d="m 217.39716,126.41894 h 31.80891"
     id="path40" /><path
     style="fill:none;fill-opacity:1;stroke:#b2e39d;stroke-width:8;stroke-linecap:round;stroke-linejoin:round;stroke-dasharray:none;stroke-opacity:1"
     d="m 196.7439,89.293293 h 24.18738"
     id="path41"
     sodipodi:nodetypes="cc" /><path
     style="fill:none;fill-opacity:1;stroke:#e7ed97;stroke-width:8;stroke-linecap:round;stroke-linejoin:round;stroke-dasharray:none;stroke-opacity:1"
     d="m 220.51297,89.293293 h 7.95089"
     id="path42"
     sodipodi:nodetypes="cc" /><path
     style="fill:none;fill-opacity:1;stroke:#b2e39d;stroke-width:8;stroke-linecap:round;stroke-linejoin:round;stroke-dasharray:none;stroke-opacity:1"
     d="m 138.00633,126.41894 h 31.80891"
     id="path43" /><path
     style="fill:none;fill-opacity:1;stroke:#b2e39d;stroke-width:8;stroke-linecap:round;stroke-linejoin:round;stroke-dasharray:none;stroke-opacity:1"
     d="m 178.22304,50.916028 h 31.80891"
     id="path55" /><path
     style="fill:none;fill-opacity:1;stroke:#e7ed97;stroke-width:8;stroke-linecap:round;stroke-linejoin:round;stroke-dasharray:none;stroke-opacity:1"
     d="m 217.91845,50.916028 h 31.80891"
     id="path56" /><path
     style="fill:none;fill-opacity:1;stroke:#b2e39d;stroke-width:8;stroke-linecap:round;stroke-linejoin:round;stroke-dasharray:none;stroke-opacity:1"
     d="m 178.22304,76.232055 h 31.80891"
     id="path57" /><path
     style="fill:none;fill-opacity:1;stroke:#e7ed97;stroke-width:8;stroke-linecap:round;stroke-linejoin:round;stroke-dasharray:none;stroke-opacity:1"
     d="m 217.91845,76.232055 h 31.80891"
     id="path58" /><path
     style="fill:none;fill-opacity:1;stroke:#b2e39d;stroke-width:8;stroke-linecap:round;stroke-linejoin:round;stroke-dasharray:none;stroke-opacity:1"
     d="m 178.22304,38.216023 h 31.80891"
     id="path63" /><path
     style="fill:none;fill-opacity:1;stroke:#e7ed97;stroke-width:8;stroke-linecap:round;stroke-linejoin:round;stroke-dasharray:none;stroke-opacity:1"
     d="m 217.91845,38.216023 h 31.80891"
     id="path64" /><path
     style="fill:none;fill-opacity:1;stroke:#b2e39d;stroke-width:8;stroke-linecap:round;stroke-linejoin:round;stroke-dasharray:none;stroke-opacity:1"
     d="m 178.22304,64.061217 h 31.80891"
     id="path65" /><path
     style="fill:none;fill-opacity:1;stroke:#e7ed97;stroke-width:8;stroke-linecap:round;stroke-linejoin:round;stroke-dasharray:none;stroke-opacity:1"
     d="m 217.91845,64.061217 h 31.80891"
     id="path66" /><path
     style="fill:none;fill-opacity:1;stroke:#b2e39d;stroke-width:8;stroke-linecap:round;stroke-linejoin:round;stroke-dasharray:none;stroke-opacity:1"
     d="m 178.22304,11.757688 h 31.80891"
     id="path71" /><path
     style="fill:none;fill-opacity:1;stroke:#e7ed97;stroke-width:8;stroke-linecap:round;stroke-linejoin:round;stroke-dasharray:none;stroke-opacity:1"
     d="m 217.91845,11.757688 h 31.80891"
     id="path72" /><path
     style="fill:none;fill-opacity:1;stroke:#b2e39d;stroke-width:8;stroke-linecap:round;stroke-linejoin:round;stroke-dasharray:none;stroke-opacity:1"
     d="m 240.00372,64.061217 h 1.77825"
     id="path79"
     sodipodi:nodetypes="cc" /><path
     style="fill:none;fill-opacity:1;stroke:#b2e39d;stroke-width:8;stroke-linecap:round;stroke-linejoin:round;stroke-dasharray:none;stroke-opacity:1"
     d="m 224.12871,38.132046 h 1.77825"
     id="path80"
     sodipodi:nodetypes="cc" /><path
     style="fill:none;fill-opacity:1;stroke:#b2e39d;stroke-width:8;stroke-linecap:round;stroke-linejoin:round;stroke-dasharray:none;stroke-opacity:1"
     d="M 194.09805,24.734952 H 209.9598"
     id="path81"
     sodipodi:nodetypes="cc" /><path
     style="fill:none;fill-opacity:1;stroke:#e7ed97;stroke-width:8;stroke-linecap:round;stroke-linejoin:round;stroke-dasharray:none;stroke-opacity:1"
     d="m 203.71641,24.734952 h 22.1016"
     id="path82"
     sodipodi:nodetypes="cc" /></svg>
