<?xml version="1.0" encoding="UTF-8" standalone="no"?>
<!-- Created with Inkscape (http://www.inkscape.org/) -->

<svg
   width="209.74109mm"
   height="141.80415mm"
   viewBox="0 0 209.74109 141.80415"
   version="1.1"
   id="svg1"
   xml:space="preserve"
   inkscape:version="1.3.1 (9b9bdc1480, 2023-11-25, custom)"
   sodipodi:docname="parakit.logo.svg"
   xmlns:inkscape="http://www.inkscape.org/namespaces/inkscape"
   xmlns:sodipodi="http://sodipodi.sourceforge.net/DTD/sodipodi-0.dtd"
   xmlns="http://www.w3.org/2000/svg"
   xmlns:svg="http://www.w3.org/2000/svg"><sodipodi:namedview
     id="namedview1"
     pagecolor="#ffffff"
     bordercolor="#000000"
     borderopacity="0.25"
     inkscape:showpageshadow="2"
     inkscape:pageopacity="0.0"
     inkscape:pagecheckerboard="0"
     inkscape:deskcolor="#d1d1d1"
     inkscape:document-units="mm"
     showgrid="false"
     inkscape:zoom="0.5140214"
     inkscape:cx="-31.127109"
     inkscape:cy="398.81608"
     inkscape:window-width="1920"
     inkscape:window-height="1016"
     inkscape:window-x="0"
     inkscape:window-y="27"
     inkscape:window-maximized="1"
     inkscape:current-layer="layer1" /><defs
     id="defs1" /><path
     style="display:inline;opacity:1;fill:#bcbbaa;fill-opacity:1;stroke:#2d2d2d;stroke-width:4.394;stroke-linecap:round;stroke-linejoin:round;stroke-dasharray:none;stroke-dashoffset:0;stroke-opacity:1"
     d="m 129.87098,88.451067 c 5.9519,7.16083 33.53373,21.609863 31.48901,24.960943 8.25592,2.98079 31.11402,13.54171 36.36196,17.00073 -0.25209,4.58621 10.90049,6.52298 9.80596,8.64601 -2.35716,4.5721 -74.97438,-20.88448 -84.93748,-27.74687"
     id="path2"
     sodipodi:nodetypes="cccsc" /><path
     style="opacity:1;fill:#f4f4e6;fill-opacity:1;stroke:#2d2d2d;stroke-width:4.394;stroke-linecap:round;stroke-linejoin:round;stroke-dasharray:none;stroke-dashoffset:0;stroke-opacity:1"
     d="m 156.66075,108.29996 c 14.01504,14.36649 -29.03324,4.32959 -50.41023,-0.47848 C 53.8594,116.48958 39.280226,93.681567 29.219775,62.031827 37.404855,38.908704 55.465346,37.511698 69.295992,26.808941 l 60.933178,54.870216 -0.60383,7.49977 z"
     id="path3"
     sodipodi:nodetypes="ccccccc" /><path
     style="opacity:1;fill:#e7e7e7;fill-opacity:1;stroke:#2d2d2d;stroke-width:4.394;stroke-linecap:round;stroke-linejoin:round;stroke-dasharray:none;stroke-opacity:1"
     d="m 71.907885,28.540199 c 26.078202,22.725068 39.420145,33.755138 58.091435,51.963578 2.72593,2.65836 2.0076,10.49516 -5.94477,9.00748 2.81638,1.66313 1.35858,7.72694 -8.04371,7.33182 -0.54391,0.89903 2.69596,5.902003 -8.34798,4.342383 -2.71619,2.15294 -8.402423,4.87036 -18.056663,3.19735 C 63.842406,99.918127 36.327401,67.753957 58.10677,47.900647 70.949444,36.193711 71.907885,28.540199 71.907885,28.540199 Z"
     id="path6"
     sodipodi:nodetypes="ccccsssc" /><g
     inkscape:groupmode="layer"
     id="layer2"
     inkscape:label="stripes"
     style="display:inline"
     transform="translate(-8.116783,-59.363893)"><path
       style="opacity:1;fill:none;fill-opacity:1;stroke:#ba1617;stroke-width:2.08182;stroke-linecap:round;stroke-linejoin:round;stroke-dasharray:none;stroke-opacity:1"
       d="m 59.832587,122.94176 c 7.063158,-3.5401 7.930195,-5.213 12.012901,-11.53339"
       id="path27"
       sodipodi:nodetypes="cc" /><path
       style="opacity:1;fill:none;fill-opacity:1;stroke:#449b42;stroke-width:6.8;stroke-linecap:round;stroke-linejoin:round;stroke-dasharray:none;stroke-opacity:1"
       d="m 69.95948,125.56061 c 13.571099,-6.80192 17.964989,-9.84845 22.646638,-24.78701"
       id="path10"
       sodipodi:nodetypes="cc" /><path
       style="opacity:1;fill:none;fill-opacity:1;stroke:#ba1617;stroke-width:6.8;stroke-linecap:round;stroke-linejoin:round;stroke-dasharray:none;stroke-opacity:1"
       d="m 77.38682,135.34302 c 13.571099,-6.80192 16.649495,-13.9506 21.331152,-28.88915"
       id="path11"
       sodipodi:nodetypes="cc" /><path
       style="opacity:0.776147;fill:none;fill-opacity:1;stroke:#449b42;stroke-width:6.8;stroke-linecap:round;stroke-linejoin:round;stroke-dasharray:none;stroke-opacity:1"
       d="m 102.34105,123.32521 c 0.86252,-1.99673 2.53945,-5.74548 3.80555,-9.63902"
       id="path12"
       sodipodi:nodetypes="cc" /><path
       style="opacity:0.786524;fill:none;fill-opacity:1;stroke:#449b42;stroke-width:6.8;stroke-linecap:round;stroke-linejoin:round;stroke-dasharray:none;stroke-opacity:1"
       d="M 91.332618,150.40995 C 104.90372,143.60803 108.9517,133.6401 113.63336,118.70154"
       id="path13"
       sodipodi:nodetypes="cc" /><path
       style="opacity:1;fill:none;fill-opacity:1;stroke:#ba1617;stroke-width:6.8;stroke-linecap:round;stroke-linejoin:round;stroke-dasharray:none;stroke-opacity:0.780392"
       d="m 110.5855,155.00404 c 9.33866,-13.60029 2.60367,-14.02528 12.75157,-25.69286"
       id="path14"
       sodipodi:nodetypes="cc" /><path
       style="opacity:0.779851;fill:none;fill-opacity:1;stroke:#ba1617;stroke-width:6.8;stroke-linecap:round;stroke-linejoin:round;stroke-dasharray:none;stroke-opacity:1"
       d="m 95.036815,133.3633 c 4.384944,-3.96101 6.222925,-6.40454 7.215975,-9.97157"
       id="path15"
       sodipodi:nodetypes="cc" /><path
       style="opacity:0.779851;fill:none;fill-opacity:1;stroke:#ba1617;stroke-width:6.8;stroke-linecap:round;stroke-linejoin:round;stroke-dasharray:none;stroke-opacity:1"
       d="m 104.72515,139.69075 c 0.42064,-0.87894 1.33298,-1.75835 1.74301,-3.02591"
       id="path16"
       sodipodi:nodetypes="cc" /><path
       style="opacity:0.776147;fill:none;fill-opacity:1;stroke:#449b42;stroke-width:6.8;stroke-linecap:round;stroke-linejoin:round;stroke-dasharray:none;stroke-opacity:1"
       d="m 112.83702,151.44736 c 1.53672,-2.14884 2.2476,-4.04342 3.06371,-6.92574"
       id="path17"
       sodipodi:nodetypes="cc" /><path
       style="opacity:0.776147;fill:none;fill-opacity:1;stroke:#449b42;stroke-width:2.08182;stroke-linecap:round;stroke-linejoin:round;stroke-dasharray:none;stroke-opacity:1"
       d="m 64.602453,139.26917 c 0.799801,-1.11838 3.516287,-3.35774 4.405015,-4.78207"
       id="path25"
       sodipodi:nodetypes="cc" /><path
       style="opacity:1;fill:none;fill-opacity:1;stroke:#449b42;stroke-width:2.08182;stroke-linecap:round;stroke-linejoin:round;stroke-dasharray:none;stroke-opacity:1"
       d="m 72.259214,105.18721 c 7.063158,-3.5401 9.549249,-4.08985 11.985835,-11.864706"
       id="path26"
       sodipodi:nodetypes="cc" /><path
       style="opacity:0.776147;fill:none;fill-opacity:1;stroke:#449b42;stroke-width:2.08182;stroke-linecap:round;stroke-linejoin:round;stroke-dasharray:none;stroke-opacity:1"
       d="m 101.14797,155.06967 c 0.4489,-1.03921 0.97422,-2.2212 1.63317,-4.24761"
       id="path28"
       sodipodi:nodetypes="cc" /><path
       style="opacity:0.786524;fill:none;fill-opacity:1;stroke:#449b42;stroke-width:2.08182;stroke-linecap:round;stroke-linejoin:round;stroke-dasharray:none;stroke-opacity:1"
       d="m 119.53686,153.70443 c 9.06232,-4.17191 9.6231,-11.77406 12.0597,-19.54892"
       id="path29"
       sodipodi:nodetypes="cc" /><path
       style="opacity:1;fill:none;fill-opacity:1;stroke:#ba1617;stroke-width:2.08182;stroke-linecap:round;stroke-linejoin:round;stroke-dasharray:none;stroke-opacity:0.780392"
       d="m 79.442061,153.32304 c 6.385058,-7.79855 2.295128,-8.63001 7.576664,-14.70246"
       id="path30"
       sodipodi:nodetypes="cc" /><path
       style="opacity:0.779851;fill:none;fill-opacity:1;stroke:#ba1617;stroke-width:2.08182;stroke-linecap:round;stroke-linejoin:round;stroke-dasharray:none;stroke-opacity:1"
       d="m 95.314841,161.48919 c 2.282176,-2.06153 5.270349,-4.52842 5.787189,-6.38489"
       id="path31"
       sodipodi:nodetypes="cc" /><path
       style="opacity:0.779851;fill:none;fill-opacity:1;stroke:#ba1617;stroke-width:2.08182;stroke-linecap:round;stroke-linejoin:round;stroke-dasharray:none;stroke-opacity:1"
       d="m 126.50708,148.12556 c 0.21892,-0.45745 0.69375,-0.91514 0.90716,-1.57485"
       id="path32"
       sodipodi:nodetypes="cc" /><path
       style="opacity:0.776147;fill:none;fill-opacity:1;stroke:#449b42;stroke-width:2.08182;stroke-linecap:round;stroke-linejoin:round;stroke-dasharray:none;stroke-opacity:1"
       d="m 81.6585,150.24087 c 0.799801,-1.11838 1.765699,-2.72484 1.919045,-4.16514"
       id="path33"
       sodipodi:nodetypes="cc" /></g><g
     inkscape:label="Layer 1"
     inkscape:groupmode="layer"
     id="layer1"
     transform="translate(-8.116783,-59.363893)"><path
       style="opacity:1;fill:none;fill-opacity:1;stroke:#2d2d2d;stroke-width:4.394;stroke-linecap:round;stroke-linejoin:round;stroke-dasharray:none;stroke-opacity:1"
       d="m 80.024668,87.904092 c 26.078202,22.725068 39.420142,33.755138 58.091432,51.963578 2.72593,2.65836 2.0076,10.49516 -5.94477,9.00748 2.81638,1.66313 1.35858,7.72694 -8.04371,7.33182 -0.54391,0.89903 2.69596,5.902 -8.34798,4.34238 -2.71619,2.15294 -8.40242,4.87036 -18.05666,3.19735 C 71.959189,159.28202 44.444184,127.11785 66.223553,107.26454 79.066227,95.557604 80.024668,87.904092 80.024668,87.904092 Z"
       id="path34"
       sodipodi:nodetypes="ccccsssc" /><path
       d="M 79.325045,87.349894 C 68.864564,76.946076 50.894304,57.092539 33.95944,62.471714 18.49594,71.10073 7.9090972,79.235889 10.757488,92.324964 c 4.13915,0.04477 12.211079,0.455333 11.608996,4.129706 -0.712496,4.3482 4.247606,12.95583 14.103664,24.1414 3.460021,3.92675 8.376178,-8.19658 11.800418,-11.22979 4.16219,-3.68689 9.707064,-6.95678 18.343539,-2.81999 4.782852,-6.01348 10.164086,-10.556349 12.71094,-19.196396 z"
       style="fill:#d9e7fa;fill-opacity:1;stroke:#2d2d2d;stroke-width:4.394;stroke-linecap:round;stroke-linejoin:round;stroke-dasharray:none;stroke-dashoffset:0;stroke-opacity:1"
       id="path1-5" /><g
       id="g9"
       transform="rotate(-12.431184,105.30862,127.42675)"
       style="stroke-width:1.9;stroke-dasharray:none"><g
         id="g4"
         transform="matrix(0.70241484,0,0,0.70241484,11.971901,11.313813)"
         style="stroke-width:2.70495;stroke-dasharray:none"><path
           style="fill:#2a2a2a;stroke-width:2.70495;stroke-linecap:round;stroke-linejoin:round;stroke-dasharray:none"
           d="m 41.824067,72.532273 c -3.347421,2.258696 -3.205064,8.434971 0.436026,11.020129 2.204625,1.565274 8.26511,0.476404 9.260596,-2.683788 2.513204,-7.97822 -5.363792,-11.259949 -9.696622,-8.336341 z"
           id="path1"
           sodipodi:nodetypes="ssss" /><path
           style="fill:#efefef;fill-opacity:1;stroke-width:2.70495;stroke-linecap:round;stroke-linejoin:round;stroke-dasharray:none"
           d="m 45.934446,73.78828 c -1.226295,0.439246 -1.03385,2.72085 0.140648,3.554738 0.711141,0.504907 2.729005,0.171404 2.98717,-0.865703 0.551663,-2.216156 -2.163319,-3.034508 -3.127818,-2.689035 z"
           id="path4"
           sodipodi:nodetypes="ssss" /></g><path
         style="fill:none;stroke:#000000;stroke-width:1.9;stroke-linecap:round;stroke-linejoin:round;stroke-dasharray:none;stroke-opacity:1"
         d="m 39.414842,60.911213 c -2.796095,1.98316 -3.560905,7.888503 0.755945,11.38895 2.454979,1.990692 9.085062,0.93149 10.248762,-2.762699 2.937875,-9.326349 -6.020842,-12.161111 -11.004707,-8.626251 z"
         id="path5"
         sodipodi:nodetypes="ssss" /></g><path
       style="opacity:1;fill:#2d2d2d;fill-opacity:1;stroke:#2d2d2d;stroke-width:2.894;stroke-linecap:round;stroke-linejoin:round;stroke-dasharray:none;stroke-opacity:1"
       d="m 78.845636,171.26174 c -6.952164,3.49521 -12.4552,3.16117 -20.617052,10.59233 -0.611475,0.95033 2.354487,5.91471 3.229869,6.60908 -1.363857,-4.19225 1.331714,-3.16081 1.116523,-6.79671 2.741841,-0.36482 5.548782,-0.56486 6.878987,-4.50263 2.586824,1.12441 4.811762,-0.26391 7.150153,-0.86447 4.951864,0.83546 11.614233,4.93997 13.330304,5.24013 2.735807,0.47851 3.069785,-2.82028 1.694419,-3.74881 -1.904111,-1.28549 -6.481947,-2.34258 -6.481947,-2.34258 3.000247,-3.46177 2.196372,-4.44241 3.239408,-6.62764 -2.474763,0.28204 -3.739586,-0.3479 -9.540664,2.4413 z"
       id="path7"
       sodipodi:nodetypes="ccccccssccc" /><path
       style="opacity:1;fill:#e29300;fill-opacity:1;stroke:#2d2d2d;stroke-width:2.194;stroke-linecap:round;stroke-linejoin:round;stroke-dasharray:none;stroke-opacity:1"
       d="m 10.602359,97.332649 c 2.724777,2.103546 5.174395,1.473288 7.630831,0.910764 -0.482765,5.045317 -2.581066,8.056837 -0.210582,16.694117 -6.655332,-5.95802 -6.666441,-11.77348 -7.420249,-17.604881 z"
       id="path8"
       sodipodi:nodetypes="cccc" /></g></svg>
